<?xml version="1.0" encoding="utf-8"?>
<!-- Generator: Adobe Illustrator 24.0.0, SVG Export Plug-In . SVG Version: 6.00 Build 0)  -->
<svg version="1.1" id="Icons" xmlns="http://www.w3.org/2000/svg" xmlns:xlink="http://www.w3.org/1999/xlink" x="0px" y="0px"
	 viewBox="0 0 512 512" style="enable-background:new 0 0 512 512;" xml:space="preserve">
<style type="text/css">
	.st0{fill:#FFFFFF;}
</style>
<rect class="st0" width="512" height="512"/>
<path d="M256,416c-1.62,0-3.16-0.73-4.19-1.98L67.03,189.89c-1.91-2.32-1.58-5.74,0.74-7.65c0.97-0.8,2.19-1.24,3.45-1.24h369.57
	c3,0,5.43,2.44,5.43,5.44c0,1.26-0.44,2.48-1.24,3.45L260.19,414.02C259.16,415.27,257.62,416,256,416z M82.74,191.87L256,402.02
	l173.26-210.15H82.74z"/>
<path d="M256,416c-2.21,0-4.2-1.34-5.03-3.38l-91.6-224.13c-1.13-2.78,0.2-5.95,2.98-7.09c0.65-0.27,1.35-0.4,2.06-0.4H347.6
	c3,0,5.44,2.43,5.44,5.43c0,0.7-0.14,1.4-0.4,2.06l-91.6,224.13C260.2,414.66,258.21,416,256,416z M172.49,191.87L256,396.22
	l83.51-204.35H172.49z"/>
<path d="M440.78,191.87H71.22c-3,0-5.43-2.43-5.43-5.44c0-1.11,0.34-2.2,0.98-3.11l59.35-85c1.02-1.46,2.68-2.33,4.46-2.33h250.87
	c1.78,0,3.44,0.87,4.46,2.33l59.35,85c1.72,2.46,1.11,5.85-1.35,7.57C442.98,191.53,441.89,191.87,440.78,191.87z M81.64,181h348.72
	l-51.76-74.13H133.4L81.64,181z"/>
<path d="M347.6,191.87H164.4c-3-0.01-5.43-2.45-5.41-5.46c0-0.8,0.18-1.58,0.52-2.31l40.29-85c0.9-1.89,2.8-3.1,4.89-3.11h102.62
	c2.09,0.01,4,1.22,4.89,3.11l40.29,85c1.28,2.71,0.13,5.95-2.59,7.24C349.19,191.69,348.4,191.87,347.6,191.87L347.6,191.87z
	 M172.99,181h166.02l-35.14-74.13h-95.75L172.99,181z"/>
</svg>
