<svg width="18" height="18" viewBox="0 0 18 18" fill="none" xmlns="http://www.w3.org/2000/svg">
<path d="M7.48375 1.56819C7.58451 1.51261 7.68648 1.45921 7.79165 1.40748C8.166 1.22325 8.5603 1.06688 8.96377 0.943723C9.15401 0.885635 9.36114 0.946223 9.4902 1.09731C9.61974 1.24927 9.64675 1.46293 9.55928 1.64204C8.48563 3.84113 8.49249 6.36127 9.57897 8.55553C10.8518 11.127 13.4257 12.7961 16.2949 12.9104C16.493 12.9183 16.6678 13.0424 16.7404 13.2269C16.813 13.4114 16.7696 13.6217 16.6302 13.7626C16.1345 14.2623 15.5631 14.6923 14.9314 15.0408C14.8293 15.0971 14.7256 15.1515 14.62 15.2035C12.7774 16.1154 10.69 16.2561 8.74151 15.5985C6.79329 14.9413 5.21792 13.5647 4.30674 11.7234C2.47492 8.02264 3.87038 3.56152 7.48375 1.56819ZM9.06187 14.6503C10.7574 15.2224 12.5738 15.1009 14.1768 14.3069C14.2692 14.261 14.3598 14.2139 14.4487 14.1649C14.6612 14.0476 14.8665 13.9195 15.0625 13.7817C12.3186 13.296 9.9391 11.5379 8.68283 8.99961C7.6376 6.88944 7.47797 4.51186 8.20481 2.32009C4.88493 3.98467 3.5707 7.97985 5.20424 11.2797C5.99755 12.8814 7.36746 14.0782 9.06187 14.6503Z" fill="black"/>
</svg>
