<svg width="18" height="18" viewBox="0 0 18 18" fill="none" xmlns="http://www.w3.org/2000/svg">
<path d="M9.11375 3.79639C6.24447 3.79639 3.91016 6.1307 3.91016 8.99998C3.91016 11.8698 6.24447 14.2046 9.11375 14.2046C11.983 14.2046 14.3173 11.8698 14.3173 8.99998C14.3173 6.1307 11.983 3.79639 9.11375 3.79639ZM9.11375 13.1421C6.83044 13.1421 4.97266 11.2838 4.97266 8.99998C4.97266 6.71667 6.83044 4.85889 9.11375 4.85889C11.3971 4.85889 13.2548 6.71667 13.2548 8.99998C13.2548 11.2838 11.3971 13.1421 9.11375 13.1421Z" fill="#eaeaea"/>
<path d="M9.11377 3.6843C9.40702 3.6843 9.64502 3.44683 9.64502 3.15305V1.05408C9.64502 0.760296 9.40702 0.522827 9.11377 0.522827C8.82052 0.522827 8.58252 0.760296 8.58252 1.05408V3.15305C8.58252 3.44683 8.81999 3.6843 9.11377 3.6843Z" fill="#eaeaea"/>
<path d="M9.11377 14.3157C8.82052 14.3157 8.58252 14.5531 8.58252 14.8469V16.9459C8.58252 17.2397 8.82052 17.4771 9.11377 17.4771C9.40702 17.4771 9.64502 17.2397 9.64502 16.9459V14.8469C9.64502 14.5531 9.40702 14.3157 9.11377 14.3157Z" fill="#eaeaea"/>
<path d="M17.0594 8.46875H14.9604C14.6672 8.46875 14.4292 8.70622 14.4292 9C14.4292 9.29378 14.6672 9.53125 14.9604 9.53125H17.0594C17.3527 9.53125 17.5907 9.29378 17.5907 9C17.5907 8.70622 17.3527 8.46875 17.0594 8.46875Z" fill="#eaeaea"/>
<path d="M3.79819 9C3.79819 8.70622 3.56019 8.46875 3.26694 8.46875H1.16797C0.874719 8.46875 0.636719 8.70622 0.636719 9C0.636719 9.29378 0.874719 9.53125 1.16797 9.53125H3.26694C3.56019 9.53125 3.79819 9.29378 3.79819 9Z" fill="#eaeaea"/>
<path d="M4.69876 5.12982C4.80288 5.23926 4.94313 5.29504 5.08391 5.29504C5.21566 5.29504 5.34741 5.24617 5.44994 5.14895C5.66244 4.94654 5.67148 4.61026 5.46907 4.39776L4.02248 2.87679C3.8206 2.66482 3.48379 2.65685 3.27129 2.8582C3.05879 3.0606 3.04976 3.39688 3.25216 3.60938L4.69876 5.12982Z" fill="#eaeaea"/>
<path d="M13.5283 12.8701C13.3265 12.6587 12.9902 12.6502 12.7771 12.8515C12.5646 13.0539 12.5556 13.3902 12.758 13.6027L14.2046 15.1237C14.3087 15.2331 14.449 15.2889 14.5898 15.2889C14.7215 15.2889 14.8533 15.24 14.9558 15.1428C15.1683 14.9404 15.1773 14.6041 14.9749 14.3916L13.5283 12.8701Z" fill="#eaeaea"/>
<path d="M4.6988 12.8712L3.25221 14.3911C3.05034 14.6036 3.0583 14.9399 3.2708 15.1423C3.37387 15.24 3.50562 15.2884 3.63684 15.2884C3.77709 15.2884 3.91734 15.2331 4.02199 15.1231L5.46859 13.6032C5.67046 13.3907 5.66249 13.0545 5.44999 12.8521C5.23749 12.6512 4.90174 12.6597 4.6988 12.8712Z" fill="#eaeaea"/>
<path d="M13.1439 5.29452C13.2841 5.29452 13.4244 5.23927 13.529 5.1293L14.9756 3.60833C15.178 3.39583 15.1695 3.05955 14.9565 2.85714C14.7445 2.65474 14.4082 2.66377 14.2053 2.87574L12.7587 4.3967C12.5563 4.6092 12.5648 4.94549 12.7778 5.14789C12.8804 5.24671 13.0121 5.29452 13.1439 5.29452Z" fill="#eaeaea"/>
</svg>
