<svg clip-rule="evenodd" fill-rule="evenodd" stroke-linejoin="round" stroke-miterlimit="2" viewBox="0 0 64 64" xmlns="http://www.w3.org/2000/svg" xmlns:serif="http://www.serif.com/"><path id="Artboard1" d="m0 0h64v64h-64z" fill="none"/><g id="Artboard11"><path d="m41.078 61.25h4.922c8.417 0 15.25-6.833 15.25-15.25v-28c0-8.417-6.833-15.25-15.25-15.25h-28c-8.417 0-15.25 6.833-15.25 15.25v28c0 8.417 6.833 15.25 15.25 15.25h14.75c.69 0 1.25-.56 1.25-1.25s-.56-1.25-1.25-1.25h-14.75c-7.037 0-12.75-5.713-12.75-12.75v-28c0-7.037 5.713-12.75 12.75-12.75h28c7.037 0 12.75 5.713 12.75 12.75v28c0 7.037-5.713 12.75-12.75 12.75h-4.922c-.69 0-1.25.56-1.25 1.25s.56 1.25 1.25 1.25z"/><g transform="matrix(1.851 0 0 1.851 -5.017 -16.171)"><path d="m24.231 23.286v2.558c0 .373.303.676.676.676h3.395s-.472 2.962-.472 2.962h-2.923c-.373 0-.676.302-.676.675v11c0 .373.303.676.676.676.372 0 .675-.303.675-.676v-10.324h2.825c.332 0 .614-.242.667-.569l.686-4.314c.031-.195-.025-.394-.153-.544-.128-.151-.316-.237-.514-.237h-3.511v-2.012l-.675.676.017-.031.645-.678c-.034-.691.065-1.245.585-1.291h3.253c.373 0 .675-.303.675-.676v-4c0-.315-.218-.588-.525-.658-2.58-.59-5.513-.404-7.458.718-1.419.818-2.348 2.109-2.368 3.933v4.019h-3.138c-.373 0-.675.302-.675.675v4.313c0 .373.302.676.675.676h3.138v10.324c0 .373.303.676.676.676.372 0 .675-.303.675-.676v-11c0-.373-.302-.675-.675-.675h-3.138v-2.962h3.138c.373 0 .675-.303.675-.676v-4.682c.019-1.637 1.098-2.646 2.563-3.174 1.482-.535 3.347-.595 5.086-.28v2.774h-2.598c-.014 0-.027 0-.041.001-1.24.076-1.952 1.092-1.872 2.708.001.032.005.064.011.095z"/></g></g></svg>