<svg clip-rule="evenodd" fill-rule="evenodd" stroke-linejoin="round" stroke-miterlimit="2" viewBox="0 0 64 64" xmlns="http://www.w3.org/2000/svg" xmlns:serif="http://www.serif.com/"><g transform="translate(-76)"><g id="Artboard1" transform="translate(76)"><path d="m0 0h64v64h-64z" fill="none"/><path d="m61.25 18c0-8.417-6.833-15.25-15.25-15.25h-28c-8.417 0-15.25 6.833-15.25 15.25v28c0 8.417 6.833 15.25 15.25 15.25h28c8.417 0 15.25-6.833 15.25-15.25zm-2.5 0v28c0 7.037-5.713 12.75-12.75 12.75h-28c-7.037 0-12.75-5.713-12.75-12.75v-28c0-7.037 5.713-12.75 12.75-12.75h28c7.037 0 12.75 5.713 12.75 12.75z"/><g transform="matrix(.779 0 0 .779 -52.177 7.059)"><path d="m108 13.396c-10.268 0-18.604 8.336-18.604 18.604s8.336 18.604 18.604 18.604 18.604-8.336 18.604-18.604-8.336-18.604-18.604-18.604zm0 3.208c8.497 0 15.396 6.899 15.396 15.396s-6.899 15.396-15.396 15.396-15.396-6.899-15.396-15.396 6.899-15.396 15.396-15.396z"/></g><g transform="matrix(.176 0 0 .176 29.941 9.353)"><path d="m108 7.917c-13.292 0-24.083 10.791-24.083 24.083s10.791 24.083 24.083 24.083 24.083-10.791 24.083-24.083-10.791-24.083-24.083-24.083zm0 14.166c5.473 0 9.917 4.444 9.917 9.917s-4.444 9.917-9.917 9.917-9.917-4.444-9.917-9.917 4.444-9.917 9.917-9.917z"/></g></g></g></svg>