<svg clip-rule="evenodd" fill-rule="evenodd" stroke-linejoin="round" stroke-miterlimit="2" viewBox="0 0 64 64" xmlns="http://www.w3.org/2000/svg" xmlns:serif="http://www.serif.com/"><g transform="translate(-227 -78)"><g id="Artboard1" transform="translate(227 78)"><path d="m0 0h64v64h-64z" fill="none"/><g transform="translate(-227 -78)"><path d="m288.25 100.143c0-6.131-4.977-11.108-11.107-11.108h-36.286c-6.13 0-11.107 4.977-11.107 11.108v19.714c0 6.131 4.977 11.108 11.107 11.108h36.286c6.13 0 11.107-4.977 11.107-11.108zm-2.5 0v19.714c0 4.751-3.857 8.608-8.607 8.608h-36.286c-4.75 0-8.607-3.857-8.607-8.608v-19.714c0-4.751 3.857-8.608 8.607-8.608h36.286c4.75 0 8.607 3.857 8.607 8.608z"/></g><g transform="matrix(0 1 -1 0 142.726 -229.226)"><path d="m262.344 102.941c-.211-.423-.644-.691-1.118-.691-.473 0-.906.268-1.118.691l-7.226 14.453c-.194.387-.173.847.055 1.216.227.368.63.593 1.063.593h14.453c.433 0 .835-.225 1.063-.593.228-.369.248-.829.055-1.216zm-1.118 3.354 5.204 10.408h-10.407z"/></g></g></g></svg>