<svg clip-rule="evenodd" fill-rule="evenodd" stroke-linejoin="round" stroke-miterlimit="2" viewBox="0 0 64 64" xmlns="http://www.w3.org/2000/svg" xmlns:serif="http://www.serif.com/"><g transform="translate(0 -78)"><g id="Artboard1" transform="translate(0 78)"><path d="m0 0h64v64h-64z" fill="none"/><g transform="translate(0 -78)"><path d="m32 80.75c-16.144 0-29.25 13.106-29.25 29.25s13.106 29.25 29.25 29.25 29.25-13.106 29.25-29.25-13.106-29.25-29.25-29.25zm0 2.5c14.764 0 26.75 11.986 26.75 26.75s-11.986 26.75-26.75 26.75-26.75-11.986-26.75-26.75 11.986-26.75 26.75-26.75z"/></g><g transform="matrix(.821 0 0 .821 5.714 -58.357)"><path d="m32 80.478c-16.293 0-29.522 13.229-29.522 29.522s13.229 29.522 29.522 29.522 29.522-13.229 29.522-29.522-13.229-29.522-29.522-29.522zm0 3.044c14.614 0 26.478 11.864 26.478 26.478s-11.864 26.478-26.478 26.478-26.478-11.864-26.478-26.478 11.864-26.478 26.478-26.478z"/></g><g transform="translate(0 -78)"><path d="m16.632 126.949c9.035-11.395 21.059-17.393 38.105-14.324.679.122 1.329-.33 1.452-1.009.122-.679-.33-1.33-1.009-1.452-18.121-3.262-30.902 3.118-40.507 15.232-.429.54-.338 1.327.203 1.756.54.428 1.327.338 1.756-.203z"/></g><g transform="matrix(-1 0 0 -1 64.652 139.872)"><path d="m17.182 124.342c7.376-8.163 19.192-12.036 37.754-11.698.689.013 1.26-.537 1.272-1.227.013-.69-.537-1.26-1.227-1.273-19.529-.355-31.893 3.934-39.654 12.522-.462.512-.422 1.303.09 1.766.512.462 1.303.422 1.765-.09z"/></g><g transform="matrix(-.707 -.707 -.707 .707 142.265 -29.373)"><path d="m11.791 126.961c8.949-6.655 25.396-14.718 43.02-16.808.685-.081 1.307.409 1.389 1.094.081.685-.409 1.307-1.094 1.389-17.133 2.031-33.124 9.862-41.823 16.331-.554.412-1.337.297-1.749-.257s-.296-1.337.257-1.749z"/></g></g></g></svg>